<?xml version="1.0" encoding="utf-8"?>
<!-- Generator: Adobe Illustrator 19.0.0, SVG Export Plug-In . SVG Version: 6.00 Build 0)  -->
<svg version="1.1" id="Capa_1" xmlns="http://www.w3.org/2000/svg" xmlns:xlink="http://www.w3.org/1999/xlink" x="0px" y="0px"
	 viewBox="-49 141 512 512" style="enable-background:new -49 141 512 512;" xml:space="preserve">
<style type="text/css">
	.st0{fill:#FFFFFF;}
</style>
<rect x="-49" y="141" width="512" height="512"/>
<g>
	<g>
		<path class="st0" d="M129.1,573.3v63.5c0,4.5,3.6,8.1,8.1,8.1h302.4c4.5,0,8.1-3.6,8.1-8.1v-63.5c0-23.8-19.3-43.1-43.1-43.1
			H172.1C148.4,530.2,129.1,549.6,129.1,573.3z M145.3,628.7v-55.4c0-14.8,12-26.8,26.8-26.8h232.6c14.8,0,26.8,12,26.8,26.8v55.4
			H145.3L145.3,628.7z"/>
	</g>
</g>
<g>
	<g>
		<path class="st0" d="M146.2,295.8L258.4,408c1.6,1.6,3.7,2.4,5.8,2.4c2.1,0,4.2-0.8,5.8-2.4l89.9-89.9c3.2-3.2,3.2-8.3,0-11.5
			L247.5,194.5c-1.5-1.5-3.6-2.4-5.8-2.4s-4.2,0.9-5.8,2.4l-89.9,89.9C143,287.5,143,292.7,146.2,295.8z M163.4,290.1l78.3-78.3
			l100.7,100.7l-78.3,78.3L163.4,290.1z"/>
	</g>
</g>
<g>
	<g>
		<path class="st0" d="M251.7,413.7c0,6.8,2.6,13.1,7.4,17.9c4.9,4.9,11.4,7.4,17.9,7.4s13-2.5,17.9-7.4l88.4-88.4
			c4.8-4.8,7.4-11.2,7.4-17.9c0-6.8-2.6-13.1-7.4-17.9c-9.9-9.9-26-9.9-35.8,0l-88.4,88.4C254.3,400.6,251.7,406.9,251.7,413.7z
			 M270.6,407.3l88.4-88.4c3.5-3.5,9.3-3.5,12.8,0c1.7,1.7,2.7,4,2.7,6.4s-0.9,4.7-2.7,6.4l-88.4,88.4c-3.5,3.5-9.3,3.5-12.8,0
			C267.1,416.6,267.1,410.8,270.6,407.3z"/>
	</g>
</g>
<g>
	<g>
		<path class="st0" d="M122.6,295.1c4.9,4.9,11.4,7.4,17.9,7.4c6.5,0,13-2.5,17.9-7.4h0l88.4-88.4c4.8-4.8,7.4-11.2,7.4-17.9
			s-2.6-13.1-7.4-17.9c-4.8-4.8-11.2-7.4-17.9-7.4s-13.1,2.6-17.9,7.4l-88.4,88.4C112.7,269.1,112.7,285.2,122.6,295.1z
			 M134.1,270.8l88.4-88.4c1.7-1.7,4-2.7,6.4-2.7c2.4,0,4.7,0.9,6.4,2.7c1.7,1.7,2.7,4,2.7,6.4c0,2.4-0.9,4.7-2.7,6.4l-88.4,88.4
			c-3.5,3.5-9.3,3.5-12.8,0C130.5,280,130.5,274.3,134.1,270.8z"/>
	</g>
</g>
<g>
	<g>
		<path class="st0" d="M-25.1,579.3c5.8,5.8,13.3,8.6,20.9,8.6c7.6,0,15.1-2.9,20.9-8.6l212.2-212.2c3.2-3.2,3.2-8.3,0-11.5
			l-30.3-30.3c-1.5-1.5-3.6-2.4-5.8-2.4s-4.2,0.9-5.8,2.4L-25.1,537.5v0C-36.7,549.1-36.7,567.8-25.1,579.3z M-13.6,549l206.5-206.5
			l18.8,18.8L5.2,567.8c-5.2,5.2-13.6,5.2-18.8,0C-18.8,562.6-18.8,554.2-13.6,549z"/>
	</g>
</g>
<rect x="-280" y="97" width="2" height="0"/>
</svg>
